<?xml version="1.0" encoding="utf-8"?>
<!-- Generator: Adobe Illustrator 20.1.0, SVG Export Plug-In . SVG Version: 6.00 Build 0)  -->
<svg version="1.1" id="Layer_1" xmlns="http://www.w3.org/2000/svg" xmlns:xlink="http://www.w3.org/1999/xlink" x="0px" y="0px"
	 viewBox="0 0 91.3 86.4" style="enable-background:new 0 0 91.3 86.4;" xml:space="preserve">
<path d="M25.1,83.2L25.1,83.2c0.1,0,0.2,0,0.4,0c0.7,0,1.4-0.2,1.9-0.7c0.7-0.5,1.1-1.3,1.2-2.1L35,23.6v56.6c0,1.7,1.4,3.1,3.1,3.1
	h19.2c1.7,0,3.1-1.4,3.1-3.1V8c0-1.7-1.4-3.1-3.1-3.1H38.1c-1,0-1.8,0.5-2.4,1.2c-0.5-0.4-1.1-0.7-1.8-0.8L14.8,3
	c-1.7-0.2-3.3,1-3.5,2.8L3.2,77.6c-0.1,0.8,0.1,1.6,0.7,2.3S5.2,81,6,81.1L25.1,83.2z M6.6,65.5l21.3,2.4l-0.5,4.3L6.1,69.9
	L6.6,65.5z M33.3,20.9L12,18.5l0.5-4.3l21.3,2.4L33.3,20.9z M11.7,20.4L33,22.8l-4.9,43.1L6.8,63.5L11.7,20.4z M58.4,65.9H37V22.5
	h21.5v43.4H58.4z M37,67.9h21.5v4.4H37V67.9z M58.4,20.5H37v-4.4h21.5v4.4H58.4z M57.3,81.4H38.1c-0.6,0-1.1-0.5-1.1-1.1v-6h21.5v6
	C58.4,80.9,57.9,81.4,57.3,81.4z M38.1,6.9h19.2c0.6,0,1.1,0.5,1.1,1.1v6.1H37V8C37,7.4,37.5,6.9,38.1,6.9z M13.8,5.3
	C14,5.1,14.3,5,14.6,5.1l19.1,2.2c0.6,0.1,1.1,0.6,1,1.2L34,14.6l-21.3-2.5L13.4,6C13.4,5.7,13.5,5.5,13.8,5.3z M5.2,77.8l0.7-6
	l21.3,2.4l-0.7,6c0,0.3-0.2,0.6-0.4,0.8c-0.2,0.2-0.5,0.3-0.8,0.2L6.2,79.1c-0.3,0-0.6-0.2-0.8-0.4C5.3,78.4,5.2,78.1,5.2,77.8z"/>
<path d="M85,4.9H65.8c-1.7,0-3.1,1.4-3.1,3.1v72.3c0,1.7,1.4,3.1,3.1,3.1H85c1.7,0,3.1-1.4,3.1-3.1V8C88.2,6.3,86.8,4.9,85,4.9z
	 M64.7,22.5h21.5v43.4H64.7V22.5z M86.2,20.5H64.7v-4.4h21.5V20.5z M64.7,67.9h21.5v4.4H64.7V67.9z M65.8,6.9H85
	c0.6,0,1.1,0.5,1.1,1.1v6.1H64.7V8C64.7,7.4,65.2,6.9,65.8,6.9z M85,81.4H65.8c-0.6,0-1.1-0.5-1.1-1.1v-6h21.5v6
	C86.2,80.9,85.7,81.4,85,81.4z"/>
<path d="M47.7,56.1c4.6,0,8.3-5.4,8.3-12s-3.7-12-8.3-12s-8.3,5.4-8.3,12S43.1,56.1,47.7,56.1z M47.7,34.2c3.5,0,6.3,4.5,6.3,10
	s-2.8,10-6.3,10s-6.3-4.5-6.3-10S44.2,34.2,47.7,34.2z"/>
<path d="M18.6,55c0.2,0,0.4,0,0.7,0c4.3,0,8.2-4.8,8.9-11c0.4-3.1-0.1-6.1-1.4-8.5c-1.3-2.5-3.3-4-5.5-4.3c-2.3-0.3-4.5,0.8-6.4,3
	c-1.7,2.1-2.9,4.9-3.2,8C11,48.8,14,54.5,18.6,55z M13.7,42.4c0.3-2.7,1.3-5.2,2.8-6.9c1.3-1.5,2.7-2.3,4.2-2.3c0.1,0,0.3,0,0.4,0
	c1.6,0.2,3,1.3,4,3.2c1,2,1.5,4.7,1.1,7.4c-0.6,5.5-3.9,9.6-7.4,9.2C15.4,52.6,13.1,47.9,13.7,42.4z"/>
<path d="M75.4,32.2c-4.6,0-8.3,5.4-8.3,12s3.7,12,8.3,12s8.3-5.4,8.3-12S80,32.2,75.4,32.2z M75.4,54.1c-3.5,0-6.3-4.5-6.3-10
	s2.8-10,6.3-10s6.3,4.5,6.3,10S78.9,54.1,75.4,54.1z"/>
</svg>
